<?xml version="1.0" encoding="utf-8"?>
<!-- Generator: Adobe Illustrator 19.0.0, SVG Export Plug-In . SVG Version: 6.00 Build 0)  -->
<svg version="1.1" id="Layer_1" xmlns="http://www.w3.org/2000/svg" xmlns:xlink="http://www.w3.org/1999/xlink" x="0px" y="0px"
	 viewBox="0 0 40 40" style="enable-background:new 0 0 40 40;" xml:space="preserve">
<style type="text/css">
	.st0{fill:#010101;}
</style>
<path class="st0" d="M20,0C8.9,0,0,8.9,0,20s8.9,20,20,20s20-8.9,20-20S31.1,0,20,0z M26.9,21.1l-10,6.2c-0.2,0.1-0.4,0.2-0.7,0.2
	c-0.2,0-0.4,0-0.6-0.2c-0.4-0.2-0.6-0.6-0.6-1.1V13.7c0-0.4,0.3-0.9,0.6-1.1c0.4-0.2,0.9-0.2,1.3,0l10,6.3c0.4,0.2,0.6,0.6,0.6,1.1
	S27.3,20.8,26.9,21.1z"/>
</svg>
